g point
v 0.4 -0.3 0.4 
v -0.4 -0.3 0.4 
v -0.3 -0.4 0.3 
v 0.3 -0.4 0.3 
v -0.3 -0.4 -0.3 
v 0.3 -0.4 -0.3 
v 0.4 -0.3 -0.4 
v -0.4 -0.3 -0.4 
v 0.4 0.3 -0.4 
v 0.4 0.3 0.4 
v -0.4 0.3 0.4 
v -0.4 0.3 -0.4 
v 0.3 0.4 -0.3 
v 0.3 0.4 0.3 
v -0.3 0.4 0.3 
v -0.3 0.4 -0.3 
vn 0 -0.707107 0.707107 
vn 0 -1 -1.22465e-16 
vn 0.707107 -0.707107 -4.32978e-17 
vn 8.65956e-17 -0.707107 -0.707107 
vn 1 1.83697e-16 6.12323e-17 
vn -0.707107 -0.707107 -2.16489e-16 
vn 0 6.12323e-17 1 
vn 1.22465e-16 3.06162e-16 -1 
vn 0.707107 0.707107 1.29893e-16 
vn 0 0.707107 0.707107 
vn 0 1 1.22465e-16 
vn 8.65956e-17 0.707107 -0.707107 
vn -1 1.83697e-16 -1.83697e-16 
vn -0.707107 0.707107 -4.32978e-17 
usemtl 0.498039_0.498039_0.498039_0.000000_0.000000
o mesh0
f 1//1 2//1 3//1 
f 3//1 4//1 1//1 
o mesh1
f 5//2 6//2 4//2 
f 4//2 3//2 5//2 
o mesh2
f 7//3 1//3 4//3 
f 4//3 6//3 7//3 
o mesh3
f 8//4 7//4 6//4 
f 6//4 5//4 8//4 
o mesh4
f 1//5 7//5 9//5 
f 9//5 10//5 1//5 
o mesh5
f 2//6 8//6 5//6 
f 5//6 3//6 2//6 
o mesh6
f 2//7 1//7 10//7 
f 10//7 11//7 2//7 
o mesh7
f 7//8 8//8 12//8 
f 12//8 9//8 7//8 
o mesh8
f 10//9 9//9 13//9 
f 13//9 14//9 10//9 
o mesh9
f 11//10 10//10 14//10 
f 14//10 15//10 11//10 
o mesh10
f 16//11 15//11 14//11 
f 14//11 13//11 16//11 
o mesh11
f 12//12 16//12 13//12 
f 13//12 9//12 12//12 
o mesh12
f 11//13 12//13 8//13 
f 8//13 2//13 11//13 
o mesh13
f 12//14 11//14 15//14 
f 15//14 16//14 12//14 
